<svg width="14" height="17" viewBox="0 0 14 17" fill="none" xmlns="http://www.w3.org/2000/svg">
<path d="M11.6192 8.79637C11.6119 7.45835 12.2171 6.44846 13.4421 5.70471C12.7567 4.72398 11.7213 4.1844 10.3541 4.07867C9.05981 3.97658 7.64523 4.83335 7.12752 4.83335C6.58065 4.83335 5.32648 4.11512 4.34211 4.11512C2.30773 4.14794 0.145752 5.73752 0.145752 8.97137C0.145752 9.92658 0.320752 10.9134 0.670752 11.9318C1.13742 13.2698 2.82179 16.5511 4.57908 16.4964C5.49784 16.4745 6.14679 15.8438 7.34263 15.8438C8.502 15.8438 9.10356 16.4964 10.128 16.4964C11.8999 16.4709 13.4239 13.4886 13.8687 12.1469C11.4916 11.0276 11.6192 8.86565 11.6192 8.79637ZM9.55565 2.80992C10.551 1.62867 10.4598 0.553145 10.4306 0.166687C9.552 0.217729 8.53481 0.764604 7.95513 1.43908C7.31711 2.16096 6.94159 3.05419 7.02179 4.06044C7.97336 4.13335 8.84106 3.64481 9.55565 2.80992Z" fill="#1E1F4B" fill-opacity="0.65"/>
</svg>
