<svg width="29" height="27" viewBox="0 0 29 27" fill="none" xmlns="http://www.w3.org/2000/svg">
<path d="M2.05469 10.4453C2.54688 10.6211 3.03906 10.375 3.23828 9.87109C5.08984 4.84375 9.46094 1.97266 14.3242 1.97266C16.3984 1.97266 17.957 2.37109 19.375 3.09766C19.9375 3.36719 20.4648 3.36719 20.6875 2.86328C20.8984 2.42969 20.7109 2.03125 20.2539 1.76172C18.4141 0.648438 16.5977 0.273438 14.3242 0.273438C8.57031 0.273438 3.76562 3.39062 1.59766 9.07422C1.35156 9.70703 1.58594 10.2695 2.05469 10.4453ZM3.84766 21.2266C4.14062 21.625 4.70312 21.707 5.11328 21.3672C5.99219 20.6172 6.47266 19.3984 6.47266 18.0742C6.47266 16.3867 5.74609 15.5195 5.74609 13.5273C5.74609 8.85156 9.60156 4.98438 14.2891 4.98438C19.8555 4.98438 23.5 9.56641 23.5 16.4102C23.5 19.1523 23.0547 21.0156 22.6328 22.0234C22.4336 22.4688 22.6094 22.9727 23.0078 23.1719C23.4414 23.3828 24.0156 23.1836 24.1914 22.7031C24.6484 21.5078 25.1992 19.3984 25.1992 16.3984C25.1992 8.57031 20.8633 3.29688 14.2891 3.29688C8.67578 3.29688 4.05859 7.92578 4.05859 13.5273C4.05859 15.5078 4.80859 16.8438 4.82031 18.0508C4.82031 18.8594 4.50391 19.5742 4.01172 20.043C3.66016 20.3945 3.58984 20.875 3.84766 21.2266ZM27.1914 15.0156C27.6836 15.0156 28.0117 14.6055 27.9766 14.0898C27.5078 9.14453 25.8672 6.15625 23.0898 3.57812C22.7031 3.22656 22.1641 3.29688 21.8711 3.63672C21.5547 3.97656 21.6016 4.46875 22 4.85547C24.4375 7.23438 25.9609 10.0234 26.3477 14.1484C26.3945 14.6523 26.7227 15.0156 27.1914 15.0156ZM9.49609 16.5625C9.19141 15.7656 8.79297 14.8164 8.79297 13.5625C8.79297 10.4805 11.2422 8.01953 14.3242 8.01953C15.4844 8.01953 15.8594 8.13672 16.8203 8.58203C17.2773 8.78125 17.6992 8.65234 17.875 8.30078C18.1094 7.87891 17.9922 7.36328 17.5 7.08203C16.668 6.60156 15.5781 6.32031 14.3242 6.32031C10.3164 6.32031 7.08203 9.55469 7.08203 13.5625C7.08203 14.9688 7.46875 16.2578 7.83203 17.207C8.03125 17.7109 8.52344 17.9219 9.03906 17.7227C9.48438 17.5469 9.66016 17.0547 9.49609 16.5625ZM18.8828 10.3398C19.9492 12.0156 20.5 14.1953 20.5 17.0195C20.5 20.0312 19.6914 22.9023 18.3906 24.4961C18.1094 24.8594 18.1094 25.375 18.4258 25.6797C18.8008 26.0195 19.3984 25.9844 19.6914 25.5859C21.2148 23.5352 22.1758 20.3008 22.1758 16.9727C22.1758 13.1641 21.3672 11.1836 20.3477 9.4375C20.0781 8.96875 19.5391 8.81641 19.1289 9.03906C18.6602 9.27344 18.5781 9.85938 18.8828 10.3398ZM9.46094 25.1055C11.4766 23.4883 12.6016 20.8984 12.5898 18.0273C12.5664 15.8594 11.8164 14.5469 11.8164 13.4219C11.8164 11.9805 12.8125 11.043 14.3125 11.043C16.4336 11.043 17.3242 13.3633 17.418 16.9141C17.5352 20.4883 16.2812 23.7227 14.4414 25.3047C14.0898 25.6094 14.0078 26.0781 14.2422 26.4531C14.5352 26.8633 15.1211 26.9453 15.5078 26.582C17.5117 24.7656 19.0234 20.8281 19.0117 16.7969C19 12.2617 17.5703 9.35547 14.3125 9.35547C11.9219 9.35547 10.1406 10.9609 10.1406 13.2812C10.1406 14.6875 10.8672 16.375 10.8906 18.0273C10.9023 20.3945 10.0117 22.4805 8.41797 23.7812C8.03125 24.0977 7.94922 24.5781 8.20703 24.9648C8.52344 25.3984 9.07422 25.4453 9.46094 25.1055ZM2.62891 17.7812C3.05078 17.6523 3.27344 17.1953 3.16797 16.7031C2.86328 15.4727 2.69922 14.3711 2.73438 12.7422C2.73438 12.2617 2.44141 11.9102 2.00781 11.8516C1.46875 11.793 1.07031 12.1211 1.03516 12.6602C0.941406 14.0547 1.07031 15.5078 1.53906 17.1719C1.67969 17.6758 2.16016 17.9336 2.62891 17.7812ZM15.6484 19.2812C15.9414 17.5703 15.8359 15.5664 15.2383 13.7266C15.0742 13.1875 14.6289 12.9531 14.1602 13.0938C13.7148 13.2344 13.4688 13.668 13.6094 14.1602C14.1484 15.9062 14.2305 17.5 13.9844 19.0234C13.9023 19.4922 14.125 19.9258 14.6289 20.0078C15.1094 20.1016 15.5547 19.7969 15.6484 19.2812ZM6.90625 23.5117C7.86719 23.0195 9.03906 21.4844 9.39062 20.2773C9.53125 19.832 9.30859 19.3516 8.86328 19.1992C8.42969 19.0469 7.98438 19.3047 7.82031 19.7734C7.49219 20.7344 6.96484 21.4492 6.13281 22.0234C5.67578 22.3633 5.54688 22.7969 5.71094 23.1836C5.89844 23.6055 6.40234 23.7812 6.90625 23.5117ZM12.3203 26.0781C13.2812 25.375 14.2891 23.9805 14.8164 22.4922C14.9922 22.0469 14.8281 21.5195 14.3711 21.3789C13.8672 21.1914 13.4453 21.4609 13.2578 21.918C12.7422 23.1836 12.1094 24.0391 11.2891 24.707C10.9141 25.0117 10.8203 25.5156 11.0664 25.9023C11.3125 26.3008 11.8984 26.3711 12.3203 26.0781Z" fill="#FDA758"/>
</svg>
