<svg width="25" height="25" viewBox="0 0 25 25" fill="none" xmlns="http://www.w3.org/2000/svg">
<path d="M12.5063 18.9448C18.373 18.9448 22.4307 14.1987 22.4307 12.7192C22.4307 11.2324 18.3657 6.49365 12.5063 6.49365C6.71289 6.49365 2.57471 11.2324 2.57471 12.7192C2.57471 14.1987 6.71289 18.9448 12.5063 18.9448ZM12.5063 16.7988C10.2212 16.7988 8.41211 14.9458 8.40479 12.7192C8.39746 10.4341 10.2212 8.63965 12.5063 8.63965C14.7695 8.63965 16.6006 10.4341 16.6006 12.7192C16.6006 14.9458 14.7695 16.7988 12.5063 16.7988ZM12.5063 14.1914C13.3193 14.1914 13.9932 13.5249 13.9932 12.7192C13.9932 11.9062 13.3193 11.2397 12.5063 11.2397C11.686 11.2397 11.0122 11.9062 11.0122 12.7192C11.0122 13.5249 11.686 14.1914 12.5063 14.1914Z" fill="#1E1F4B" fill-opacity="0.45"/>
<path d="M3.125 3.125L21.875 21.875" stroke="#9595AA" stroke-width="2.16667" stroke-linecap="round" stroke-linejoin="round"/>
<path d="M11.025 11.0281C10.6341 11.4188 10.4144 11.9487 10.4142 12.5014C10.414 13.054 10.6333 13.5841 11.024 13.975C11.4146 14.3659 11.9446 14.5857 12.4972 14.5859C13.0498 14.586 13.5799 14.3667 13.9709 13.9761" stroke="#9595AA" stroke-width="2.16667" stroke-linecap="round" stroke-linejoin="round"/>
</svg>
